<?xml version="1.0" encoding="utf-8"?>
<!-- Generator: Adobe Illustrator 22.1.0, SVG Export Plug-In . SVG Version: 6.00 Build 0)  -->
<svg version="1.1" id="_x31_" xmlns="http://www.w3.org/2000/svg" xmlns:xlink="http://www.w3.org/1999/xlink" x="0px" y="0px"
	 viewBox="0 0 909 271.1" style="enable-background:new 0 0 909 271.1;" xml:space="preserve">
<style type="text/css">
	.st0{fill:#FFFFFF;}
	.st1{fill:#172983;}
	.st2{fill:#FFED00;}
	.st3{fill:#707173;}
</style>
<rect class="st0" width="909" height="271.1"/>
<g>
	<g>
		<rect x="7.6" y="11.6" class="st1" width="366.8" height="248.9"/>
		<g>
			<path class="st2" d="M356.4,191.4c0.4,0.3,0.6-0.4,0.7-0.5C356.2,190.7,356.3,191.5,356.4,191.4z"/>
			<polygon class="st2" points="348.2,189.1 348.5,188.9 347.1,189 			"/>
			<path class="st2" d="M341.1,185.9c0.3,1.3,2.7,0.9,3.8,1.9l0.1,0.3l0.9-0.6C344.3,187,342.1,186.7,341.1,185.9z"/>
			<path class="st2" d="M338.1,182.1c0.1,0.5-1,0,0.9,0.5c-0.1-0.1-0.1-0.1-0.1-0.2C338.7,182.4,338.5,182.3,338.1,182.1z"/>
			<path class="st2" d="M338.9,182.4C339.6,182.7,338.5,181.9,338.9,182.4L338.9,182.4z"/>
			<path class="st2" d="M335.2,181.3l1.2,0c-0.1-0.3-1-0.7-0.6-0.8C334.7,180.3,334.8,180.7,335.2,181.3z"/>
			<path class="st2" d="M334,181.7l0.6,0C334.5,181.6,334.4,181.5,334,181.7z"/>
			<path class="st2" d="M335.8,181.8l-1.2-0.1c0.1,0.2,0,0.6,0.6,0.1C334.9,182.1,335.2,181.9,335.8,181.8z"/>
			<path class="st2" d="M336.4,182.2c0.5,0.4,1.2,0.9,0,0.8C338.3,183.7,338.3,182.8,336.4,182.2z"/>
			<path class="st2" d="M340.3,186.8l0.6,0.6l0.8-0.1C341.3,187.4,340.4,186.5,340.3,186.8z"/>
			<path class="st2" d="M329.1,178.4c-0.1,0.2,0.1,0.7,0.1,1l0.8,0C329.7,179.1,329,178.7,329.1,178.4z"/>
			<path class="st2" d="M329.2,179.4l-1.3,0C328.9,179.8,329.2,179.7,329.2,179.4z"/>
			<polygon class="st2" points="333.4,182.8 335.5,182.7 333,182.6 			"/>
			<polygon class="st2" points="324.7,176.8 325.6,176.5 324.2,176.9 			"/>
			<path class="st2" d="M321.8,176c0.6-0.3-0.4-0.9,0.2-1c-0.8-0.2-1.6,0-2.3,0.1C320.4,175,321.1,175.3,321.8,176z"/>
			<path class="st2" d="M318.5,175.2c0.4,0,0.7-0.1,1.2-0.2C319.3,175,318.9,175.1,318.5,175.2z"/>
			<path class="st2" d="M326,178.6c0-0.2-0.1-0.6-0.7-0.9l0.2,0.8L326,178.6z"/>
			<polygon class="st2" points="325.6,178.5 325.6,178.4 324.6,178.1 			"/>
			<path class="st2" d="M326.1,178.6l-0.1,0C326.1,178.7,326.1,178.7,326.1,178.6z"/>
			<path class="st2" d="M330.6,181.1c-0.8,0.1-2.3,0-1.2,1C330.1,181.8,329.5,181.3,330.6,181.1z"/>
			<path class="st2" d="M326.4,179.6l1.1,0.6c0-0.2-0.1-0.5,0.3-0.6L326.4,179.6z"/>
			<polygon class="st2" points="325.8,179.6 326.4,179.6 326,179.4 			"/>
			<path class="st2" d="M320.4,176.5c-0.6,0.1-1.2-0.1-1.8-0.2c0.7,0.3,1.3,0.6,2,0.9C320.7,176.9,321.2,176.7,320.4,176.5z"/>
			<path class="st2" d="M322.9,177.5l-0.1,0C322.8,177.5,322.9,177.6,322.9,177.5z"/>
			<polygon class="st2" points="312.2,174.3 312.3,174.4 312.3,174.3 			"/>
			<path class="st2" d="M320.7,177.3c0.5,0.3,0.8,0.2,1.2,0.1c-0.4-0.1-0.8-0.2-1.3-0.3C320.5,177.2,320.5,177.2,320.7,177.3z"/>
			<path class="st2" d="M316.6,174.9c0.2,0.2,0.5,0.4,0.8,0.6C317.2,175.3,316.8,174.8,316.6,174.9z"/>
			<path class="st2" d="M322.7,177.2C322.7,177.2,322.7,177.2,322.7,177.2C322.6,177,322.6,177.1,322.7,177.2z"/>
			<path class="st2" d="M322.7,177.2c-0.3,0-0.6,0.1-0.8,0.2c0.3,0.1,0.6,0.1,0.9,0.1C322.7,177.4,322.7,177.3,322.7,177.2z"/>
			<path class="st2" d="M309.1,177.8c0.3-0.6,1.8-0.7,2.8,0.3c1.3-0.1,1.1-2.3,0.4-3.7c-0.1,0.2-0.2,0.5-1.5,0.5
				c0.3,0.4,2.4,1.5,1.3,1.8c-1.7-0.2-1.2-0.6-1.9-1.1c0.4,0.9-2.3,0.5-2.3,1.7l1.5,0C309.3,177.4,308.7,177.6,309.1,177.8z"/>
			<path class="st2" d="M314.5,175.2l0.5,0.1c-0.5-0.3-0.9-0.6-1.5-1.3c-0.9,0-1.1,0.2-1.3,0.4l2.4,0.8L314.5,175.2z"/>
			<path class="st2" d="M317.3,175.9c-0.6,0.5-1.8,0.4-1.3,1.3c1.5,0.4,1.2-0.2,2.1-0.2C315.7,176.5,318.8,176.9,317.3,175.9
				c0.5,0.1,0.9,0.2,1.3,0.3c-0.4-0.2-0.8-0.4-1.1-0.7l0,0.1l0,0l0,0c0.1,0.1,0.1,0.2,0,0.1c0,0,0,0-0.1,0
				C317.4,175.8,317.3,175.9,317.3,175.9c-0.6-0.3-0.1-0.2,0.2-0.2c0,0,0-0.1,0.1-0.1l0,0l-2.4-0.4
				C315.5,175.5,316.1,175.7,317.3,175.9z"/>
			<path class="st2" d="M327.8,183c-0.1-0.1,0-0.1,0-0.2C327.6,182.9,327.5,182.9,327.8,183z"/>
			<path class="st2" d="M327,182.3c0.2,0,0.4-0.2,0.9,0c0.4,0.4-0.1,0.3-0.2,0.5c0.4-0.1,1.3,0,0.4-0.7l-0.2,0
				c-0.8-0.6-1.8-1.8-1.6-1.8C326.5,181,326.6,181.5,327,182.3z"/>
			<path class="st2" d="M322,179.2l-2-0.3l0.8,0.9l0.1-0.3C321.9,179.9,321.8,179.4,322,179.2z"/>
			<polygon class="st2" points="312.1,173.9 312.5,173.3 311.1,173.9 			"/>
			<polygon class="st2" points="309.5,173.2 309.7,172.7 309,172.8 			"/>
			<path class="st2" d="M162.3,165.3l-0.6,0.2C162,165.5,162.2,165.4,162.3,165.3z"/>
			<path class="st2" d="M166.5,165.2l0.1-0.3C166.5,165.1,166.4,165.2,166.5,165.2z"/>
			<path class="st2" d="M245.9,160.8c-0.8-0.7-1.7-1.7-1.6-1l0.2,0.7C245,160.4,245.5,160.6,245.9,160.8z"/>
			<polygon class="st2" points="201.5,161.5 201.7,161.7 202.4,161.1 			"/>
			<path class="st2" d="M200.8,164.3l-1.1-0.5C199.9,164,200.3,164.1,200.8,164.3z"/>
			<path class="st2" d="M139.2,167.7l-0.6,0.8C139.6,168.3,139.1,168,139.2,167.7z"/>
			<path class="st2" d="M283.1,167c-0.7-0.4-1.2-0.6-1.8-0.8C282.2,166.8,282.8,167.5,283.1,167z"/>
			<path class="st2" d="M163.7,158.1c-0.4,0.1-0.5,0.3-0.5,0.4C163.5,158.4,163.7,158.3,163.7,158.1z"/>
			<path class="st2" d="M279.2,165.8c0.1,0.1,0.2,0.1,0.4,0.2c0.6,0,1.1,0,1.8,0.2C280.8,165.8,280.1,165.5,279.2,165.8z"/>
			<path class="st2" d="M57,183.7c-0.1,0-0.1,0-0.2,0C56.8,183.8,56.9,183.8,57,183.7z"/>
			<path class="st2" d="M31.5,186.4c0.2-0.1,0.6-0.3,0.9-0.5C32.2,186,32,186.1,31.5,186.4z"/>
			<path class="st2" d="M299.3,170.2C299.8,170.3,299.4,170.1,299.3,170.2L299.3,170.2z"/>
			<path class="st2" d="M301.2,173.4c-0.1,0-0.2,0.1-0.3,0.3C301,173.6,301.1,173.5,301.2,173.4z"/>
			<path class="st2" d="M273,168.9L273,168.9C273.1,169,273.1,169,273,168.9z"/>
			<path class="st2" d="M300,170.7c-0.2-0.1-0.4-0.3-0.6-0.4C299.5,170.4,299.7,170.5,300,170.7z"/>
			<path class="st2" d="M300,170.3l0.5,0.2C300.5,170.4,300.5,170.4,300,170.3z"/>
			<path class="st2" d="M298.5,170c0.3,0.1,0.6,0.2,0.9,0.3c-0.1-0.1-0.1-0.1-0.1-0.1L298.5,170z"/>
			<path class="st2" d="M100.2,170.8c0,0-0.1,0-0.1,0C99.5,171.1,99.8,171,100.2,170.8z"/>
			<path class="st2" d="M230.7,166.2C230.8,166.2,230.8,166.2,230.7,166.2L230.7,166.2L230.7,166.2z"/>
			<path class="st2" d="M228.7,166.6c0.9-0.8,1.4-0.6,2-0.4l-0.5-2L228.7,166.6z"/>
			<path class="st2" d="M152.1,166.1l1.4,0.5c-1.6,1.1-2.8,0.8-1.5,1.6c0.1-2.1,5.4-0.6,5.4-2.7l0.9,0.4c-0.3,0-0.3,0.1-0.6,0.1
				c1.8,0.9,1.2-1.6,3.6-1.4c0.8,0.1,1.4,0.4,0.8,0.7l1.8-0.6c0.5,0,0.4,0.4-0.1,0.4l2.7-0.3l0,0.1c0.4-0.3,1.2-0.9,1.7-1.1
				c0.7,0.3-0.3,0.2-0.2,0.5l1.5-0.6c0.6,0.5-0.6,1.1-1.6,1.1c1.5,2.1,1.2-0.6,4.3,0.6l-1.4,0.3c0.9,1.2,2,0.7,3.7,1.4
				c-0.4-0.4-3.3-1.8-1.6-2.4c0.5,0.1,1.1,0.2,1.9-0.2c0,0.8,0.9,0.6,2,0.5l-0.1,1c1.2-0.3,1.1-0.8,1.7-1.3c1.3,0.1,1.6,0.9,1.9,1.5
				c2.1,0.1-1.4-1.2,1-1.4c1.7,0.4,2.9,0,5-0.6c1.2,0.3-0.2,0.6,0.2,0.9l1.1-0.8c0.3,0,0.2,0.3,0.1,0.4c0.9-0.3,0.1-1,1.5-1.3
				c0.4-1.1,2.9,1.6,4.7,0.4c0.4,0.3-0.2,0.6-0.1,1c2.4-0.8,2.1-0.6,4.1-1.6l1.7,0.7c-1.2-0.8,0.4-1.6,1.8-2.3
				c-0.4-0.4-0.8-0.7-1.1-0.9l2.3-0.5c0.3,0.2,0,0.5-0.3,0.9c0.2-0.1,0.3-0.2,0.4-0.2c0.8,0.4,0.4,1-0.2,1.5
				c-0.3-0.2-0.5-0.4-0.8-0.6c-0.6,0.6-1.1,1.2-1,1.8c0.1-0.1,0.4-0.2,0.7-0.2c-0.1,0.2-0.2,0.3-0.2,0.4c0.1,0.1,0.3-0.1,0.7-0.4
				l0.5,1.1l0.1-0.4l2.9,0.8c2.1-1,4-2.6,7.3-2.9c-0.9,0.8-0.2,1.3-0.3,2.3c-0.8-1.1-2.6,0.3-4.3,0c0.9,0.1,0.7,0.6,0.4,0.8l3.1-0.8
				c-0.1,0.8,0.6,0.6,1.4,1c-0.5-1.6,2.3-0.9,3.6-1.3c0,0.5-0.3,1-1.8,0.8c1.6,1.3,2.3-1.7,3.8-0.6c-0.4,0-0.6-0.1-0.7,0.2
				c0.9-0.4,3,0.1,2.4,0.5l-0.4,0c2.4,0.3,7.4,0.6,7.9-0.7c0,0.2-0.5,1.6-0.6,1.8l4.8-4.1c-0.5,1.1,0.7,3.9-1.3,4.4
				c0.6,0.2,1.3,0.5,2.5,0.2c-0.4-0.2-0.8-1.7-0.3-1.8c1.4,1.4,1,0.8,2.7,2c-0.6-0.3,0.3-2,1.2-1.9c-0.2,0.3-0.1,1.8-0.5,1.9
				l2.5-1.5c-0.6,0.3-0.3,1.5,0.2,2c-0.2-0.4,2,0.2,2.7,0.1l-0.9-0.5c2.6,0.6,2.9-2.2,5.5-1.7c-0.4,0.3-1,2.1,0.3,2.5
				c0.7-0.8,3.2-4,5.7-4.3l0.4,0.6l1.9-0.3c-1.3,1.2-4.8,3.6-6.6,4.5c0.9,0.5,0.2,0.6,1.7,0.8c0.5,0.5-0.9,0.6-1.3,0.6l3.4,0.8
				c0-1.1,2.8-0.7,2.7-1.6l-3.9,0.6c0-1.1,2.5-2.7,5-2.1c0.6,0.5-0.7,1.8-0.7,2.1c0.4-0.3,2.4-0.4,2.6-0.1l-1.1,0.4
				c1.3,0.6,2.4-1.1,3.9,0.2c0.6,0.2,1.5,1.6,1.7,1c-0.7-1.3-0.3-5,0.4-5.8c0.2,0.1,2.8,1.6,3.3,2.3c0.8,1.1-1.7,2-1.1,2.9
				c0.1-0.3,0.6-0.5,0.9-0.6c0.5,0.3-0.4,0.8,0.9,0.9c0.4-1,2.6,0.5,0.8-0.8c1.3-0.1,1.3,0.4,2.8,0.7c-0.3-0.8,1.7-2.1,3-2.1
				c-0.1,0.3,0.1,0.7,0.2,0.8c2.5,0.6,3.8,1.3,6.2,1.8c0.2,0.3,1.3,0.8,0.7,1.2c0.4-0.1,0.8-0.4,1.5-0.3c1.2,1.2-1.7-0.2-0.8,1.1
				c0.2-0.6,2.1-0.4,3.2-0.6c-0.1-1-2.4-0.7-3.5-0.5c0.3-1.3,2.3-2.3,5-2.3c2.1,0.1,0.7,1,1.1,0.9c3.7,1,3.7-1.5,6.5,0.1
				c1,1.1-0.3,1.6-0.2,2.3c-1.7-0.1-2.3-1.1-3.4-1.3l1.3,0.7c-0.6,0.2-1.7,0.1-2.2-0.3c0.9,1,6.2,1.6,8.9,3c0.6-0.1,1.5-0.2,1.2-0.6
				l-0.9-0.1c-0.7-0.9,1.9-0.5,0.9-1.1c1.3-0.2,2.9-0.5,4.5,0.3l0.1,1c0-0.3-1-0.8-1.5-0.7c0.8-0.2,2.3,1.9,3.4,0.9l-1-1
				c1.3-0.1,3.1-0.7,4.5,0c-0.4-1.1-0.4,0-1.2-1.4c0.6,1.6-3.8-1.1-2.7,0.7c-0.8-1.5-1.8-1-2.9-2.5c0,0.3,0.4,0.7-0.9,0.2
				c-0.1,0.1-0.2,0.2-0.3,0.2l-0.1,0l0.1,0.1c-0.1,0-0.1,0,0,0c0.3,0.2,0.5,0.4,0.5,0.6c-0.8,0.5-2.8,0-3.6,0.2
				c-0.7-0.3,0.4-0.3,0.1-0.7l-1.2,0.3c0.1-0.7-1.7-1.6,0.1-1.6l-1.6-0.4c-0.9-0.6-2.1-1.1-3-1c-0.7-0.3-2.1,0.3-1.3-0.1l-2.6-0.1
				l0-0.2c-2.5-0.6-5.4,0-8-1.8c-0.9,0-1.8,0-3.2-0.4l-0.2-0.6c-1.1,0-3.2-1.2-3.7-0.7c-0.9-1.8-5.2-1.3-7.1-1.9l-0.2,0.8
				c-1.3-0.3-2.6-0.2-4.3-0.2l0,0.7c-1.5,0.3-3.6-1-5.8-1.3c0.2-0.2,0.7-0.1,1.1,0.1c-2.5-2-5.8,0.4-8.1-1.1c-0.6,0.2-1.1,0-1.5-0.2
				c0.1,0,0.1,0,0.2,0c-0.1,0-0.2,0-0.2,0c-0.3-0.2-0.5-0.3-0.8-0.5c0.2,0.2,0.5,0.4,0.7,0.5c-0.5,0-1.2,0-1.9,0.1l-0.2-0.8
				c-0.1,0-0.1,0-0.2,0c-0.7-0.4-0.6,0.3-0.3,0.9c-0.4,0.1-0.7,0.2-1,0.3c-0.4-1.3-1.9,0.2-2.5-1.2c-0.5,0.6-3.5,0.1-4,1.4
				c0-0.2-0.2-0.3,0.2-0.3c-0.8-0.2-1.5-0.5-2.2-0.2l-0.2-1l-1.8,1.1c-1-0.7-1.4-1-0.3-1.7c-2.6,0.9-2,0.2-4.2,1.2l0.2-0.6
				c-0.8,0-2,0.7-2.4,0.1c-1.6-1.3-8.3-0.8-12.5-2.1c0.7,1.9-2-0.9-2.2,0.5c-0.2-0.4-0.8-0.7-0.1-1.1c-2.2,0.3-3.3-0.8-4.9,0.3
				c-0.2-0.4,0.5-0.6,0.3-0.9c-0.2,0.1-0.7,0.3-0.9,0.1c-0.2-0.3,0.3-0.3,0.7-0.5c-2.3,0-2.5,1.3-2.7,2.5c-1.1-0.6-1.7-0.6-2.5,0.2
				c-0.4-0.4-1-0.9,0.4-1c-0.8-0.1-4.8-0.7-4.9,0.3c-0.2-0.3-1.1-0.1-1.3,0c-1.8-0.1-1.9-0.2-3.6-0.1l0.5,0.2
				c-0.7,1.2-1.4,0.2-2.8,0.4l0-0.1c-3.2-0.9-1.4,0.4-4.5-0.6l0.2,0.8c-0.3,1.6-2.8-0.9-4.6-0.3l0.7,0.4c-1,0.6-2.8-2.2-3.8-2.3
				c-0.2-0.1,0.3-0.2,0.6-0.3c-2.7-0.9-0.3,1-2.3,1.3c-0.4-0.5,0.4-1.4-0.9-1.4c-0.7-0.4-3.8,1.8-5.6,0.9c0.4,0.4,0.8,0.8-0.1,1.1
				c-1.4,0.2-3.8-1.4-5-0.1c-0.2-0.1-0.3-0.2-0.3-0.3c-1.1,0.4-3.4,0.7-4,1.4c-1.1-2.5-6.5,1.6-6.7-0.7l-3.3,0.4l0.1-0.3
				c-2.1,0-2.8,0.6-3.5,1.3c-0.5-0.1-0.2-0.4-0.1-0.5c-3.1-0.2-3.4-0.1-5.9,1.3l-0.3-0.7c-0.6,0.5-4.5-0.8-7.4,0.4
				c0-0.1,0.1-0.2,0.3-0.4c-3.3,1.3-8.3-1.2-9.2,1.8l-2.1,1c2.9-0.2-0.3,1.3,1,1.6c-1.1,0.3-3-0.4-1.7-0.8l0.2,0.1
				c0.3-1.5-3.6,0-3.7-1c-5.6,0.9-11.2,1-16.5,1.9l0.8,1l-1.8,0.3c-0.5-0.2-0.8-0.8,0.5-1c-0.8-0.5-2.1,0.9-2.1,1.2
				c-2.6,0,0.7-1.5,0-1.4l-1,0.3l0.3,0.1c-0.8,0.6-0.8,1.1-2.3,1.4c-1,0-0.6-0.6-1-0.6c0-0.1-0.2-0.1-0.6,0.1l-2.3,0.4l1.1,0.7
				c-0.9,0.6-2.2,0.4-0.9,1.2c-1.9-1.2-8.7,1.3-9.7,1.1c-1.3,1-2.7,1.3-4.4,1.7c0.5,0.1,1,1-0.5,1.2c0-2.2-2.9-0.2-4.5-1.3
				c1.3,0.7-4.2,1.4-2.1,2.3c-1.3,0.2-0.3-0.7-1.4-0.9c-2.7,1.6-6.6,1.4-10.2,2.8c0,0.3,0.8,0.5,0.1,1.1l-2.3-0.7
				c-0.7,0.4-0.2,1.7-1.8,1.3c0.3,0.2,0.6,0.4,0.2,0.6c-3.7,0.6-7.2,2.1-10.7,3.6c-3.5,1.5-7,2.9-11,3.4c1.2,0.1,0.5,0.4-0.2,0.7
				c0.5-0.1,0.3,0.6,0.5,0.9l-3.3,0.4c-0.1,1.2-3,1.5-2.9,2.6l0.8-0.6c-0.7,1.6,2.8,1.5,3.2,3c0.8-1.8,4.3,0.2,5.7-2.5
				c0.6,0.1-0.2,0.6,0.2,0.8c0.3-0.8,0.9-1.2,2.3-1.5l-0.1,0.2c3.4-1.6,5.2-1.7,9.3-2.8l-0.6-0.6c0.9-0.2,1.2-0.1,1.6-0.1
				c0.6-1.4-2.4,0.8-2-0.6c1.7,1,6.1-2.2,7.4-0.9c1.3-0.5-0.7-0.7,0.7-1.1l0.5,0.3l0.1-0.7c0.9-0.2,1.5,0.2,1.7,0.6
				c-0.2,0-0.6,0.3-0.8,0.4c1.3,0.1,3.1-1.2,3.6-1.2l-1.4,0.1c3.5-1.6,8.2-2.4,11.5-4.3l-0.4-0.3c2.6-1.4,2.3-0.2,5.3-1.3l-0.1,0.1
				c0.5-0.5,1.3-0.9,2.1-1.1c-0.7,0.6,1.6,0.4,0.7,1.1c2.8-1.4,1.3-0.9,3-2.7l0.6,0.5c0.6-0.7,0.6-1,2-1.5c-1.1,0.8,1.2,0.6-0.1,1.6
				c3.5,0.5,4.5-2.3,6.3-0.8c1.1-1.9-3-0.3-2.2-0.8c-0.8-0.4,1-1.4,2-1.5c1-0.2,2.2,1.6,4.7,1.1c-0.3,0-0.3,0.2-0.5,0.2
				c1,0.2,1.8-0.9,3.1-0.5c0.5-1.1,1.6-0.2,1.5-1.5l-2.3,0.7c1.3-0.6,2.3-2.3,4.6-2c-0.1,0.3-0.7,0.7-1.2,1c0.7,0.2,1.2-0.5,2-0.2
				c0,1.3-2.8,0.8-4.1,2c0.8,0.4,2.6-1.4,2.1,0c0.7-1.9,2.6-0.3,4.1-1.9l0,0.8c0.3-0.2,0.8-0.6,1.3-0.7l-0.8,1.1
				c1.3-1.1,2.9,0.2,4.2-0.4c-2.9,0.5-0.8-0.8-2.1-1.1c3.4-1.6,2.3,1.6,6.2,0.6c-0.5,0.2-2.1-0.1-1.3-0.6c0.8,0,1.8,0.2,2.3,0.5
				c2.6-0.6-0.5-0.7,0.5-1.3c1,0.8,1.2-0.6,2.3-1l0.1,0.7c3.1,0,0.6-1.7,3.4-1.5l-1,1.2l1.4-0.5l-0.2,0.9c1.4-0.8,1.9-0.7,3.5-0.7
				c-0.4-0.5,0-1.4,1.4-1.6c1,0.3-0.4,0.8,1.5,0.4c-0.4,0.5-0.8,1.2-1.7,0.6c-0.1,0.3-0.4,0.5-0.4,0.8c1,0.4,2.5-0.2,3.1-0.3
				c-0.3,0-0.6,0-0.8-0.1l2.6-1.4c0.5,0.2,0.1,0.5-0.2,0.8c0.5-0.1,0.9-0.5,1.7-0.7c-0.1,0.6,0,1.3-1.1,1.7l2.5-1
				c0.2,0.2,1.4,0.6,1.1,0.8c1.5,0.2,3.4-1.6,5.4-1.3c0.1-0.1,0.3-0.3,0.7-0.4c1.8,0,3.5,0.6,5.5-0.4l1.3,1c1.7-0.4-1.8-1.2,1-1.9
				c2-0.5,0.8,0.9,1.5,1.1c0.9-0.6,2.6-1.9,4.5-1.1C153.2,166.1,152.7,166,152.1,166.1z M172.9,164.7c-0.4,0.2-1.2,0.7-1.5,0.2
				C171.8,164,172.2,164.4,172.9,164.7z M204.5,163c-0.3,0.2-0.8,0.1-1.3-0.2C203.6,162.8,204.1,162.8,204.5,163z M293.2,169.3
				C293.1,169.3,293.1,169.3,293.2,169.3C292.3,168.8,292.6,169,293.2,169.3z M294.9,170.1c0.2-0.1,0.2-0.2,0.2-0.3
				c-0.2,0.2-0.6,0.1-1-0.1C294.1,169.9,294.3,170.1,294.9,170.1z M93.4,166.9l0.4,0.1C93,167.4,93.2,167.2,93.4,166.9z"/>
			<path class="st2" d="M200.9,164c-0.1-0.1-0.1-0.3-0.2-0.4C200.6,163.7,200.6,163.8,200.9,164z"/>
			<path class="st2" d="M139.3,167.5L139.3,167.5c-0.1,0-0.1,0.1-0.1,0.1L139.3,167.5z"/>
			<path class="st2" d="M265.1,170.5c-0.4-0.2-0.6-0.3-0.7-0.5C264.4,170.2,264.6,170.4,265.1,170.5z"/>
			<path class="st2" d="M305,171.3l-1.2-0.1c0.6,0.1,0.7,0.3,1,0.5C304.8,171.5,304.6,171.2,305,171.3z"/>
			<path class="st2" d="M313.8,178.7c0.2,0,0.4,0.1,0.6,0.1l0.1-0.3C313.7,178.2,313.1,178.3,313.8,178.7z"/>
			<path class="st2" d="M305.4,174c-0.1,0.6,0.7,0.6,1.6,0.7c0,0-0.1,0-0.1,0C307.3,173.9,306.4,174,305.4,174z"/>
			<path class="st2" d="M307.2,174.8c0.3,0,0.5,0.1,0.8,0.2C308.1,174.7,307.7,174.9,307.2,174.8z"/>
			<path class="st2" d="M297.4,170.2c0.4,0.3,0.4-0.7,0.6-0.4C298.6,169.1,295.1,170.1,297.4,170.2z"/>
			<polygon class="st2" points="305.5,176.2 305.4,175.4 304.8,175.9 			"/>
			<path class="st2" d="M299.2,174l1.3,0.6c0-0.1,0.2-0.2,0.4-0.2C300.1,174.1,299.3,173.7,299.2,174z"/>
			<path class="st2" d="M300.9,174.3c0.4,0.1,0.8,0.2,1.1,0.1C301.8,174.4,301.3,174.3,300.9,174.3z"/>
			<polygon class="st2" points="303.7,176 303.4,175.7 302.5,175.4 			"/>
			<path class="st2" d="M285.2,170.5l-1.5-0.1c-0.2,0.2,0.2,0.5,0.7,0.5C284.8,170.8,285.3,170.8,285.2,170.5z"/>
			<path class="st2" d="M289,173.5c-0.4-0.2-0.3-0.4-0.5-0.7l-0.3,0.9L289,173.5z"/>
			<path class="st2" d="M284.8,172.8c-0.2,0.2-2.2,0.3-0.4,0.6C284.6,173.2,286.1,173.3,284.8,172.8z"/>
			<polygon class="st2" points="263.3,167.5 263.7,167.6 263.9,166 			"/>
			<path class="st2" d="M243.6,168.6c1.7,0.6,0.5-0.9,2-0.3c0.4-0.3-1.2-0.5-0.8-0.8C243.7,167.8,243.2,167.5,243.6,168.6z"/>
			<path class="st2" d="M244.8,167.6c0.2,0,0.4-0.1,0.6-0.2C245.1,167.4,244.9,167.5,244.8,167.6z"/>
			<polygon class="st2" points="27.4,187.4 26.2,187.6 27.1,187.8 			"/>
			<path class="st2" d="M25.9,189.4l-0.7-0.8l-0.2,1.1C25.2,189.6,25.7,189.3,25.9,189.4z"/>
			<path class="st2" d="M176,166.6l0.1-0.2c-0.2-0.3-0.4-0.3-1-0.3L176,166.6z"/>
			<polygon class="st2" points="160.9,166.4 161.2,166.4 160.7,165.5 			"/>
			<path class="st2" d="M148.4,168.3c0.5,0,1.1-0.2,1.6-0.2C148.9,168.3,148.2,167.2,148.4,168.3z"/>
		</g>
		<g>
			<g>
				<polygon class="st2" points="256.6,69.4 249.5,74.8 254.6,82.4 245.2,78.1 238.1,83.6 239.4,75.5 230,71.3 240.1,70.6 
					241.4,62.6 246.4,70.1 				"/>
			</g>
			<g>
				<polygon class="st2" points="210.6,71.7 208.8,78.8 216.9,82 207.7,83.2 205.8,90.3 201.9,83.9 192.7,85.1 199.5,80 195.6,73.6 
					203.8,76.8 				"/>
			</g>
			<g>
				<polygon class="st2" points="173.8,86.9 171.9,92.6 178.8,94.3 170.8,96.1 168.9,101.8 165.8,97.3 157.8,99.1 163.9,94.5 
					160.8,89.9 167.7,91.6 				"/>
			</g>
			<g>
				<polygon class="st2" points="140.4,106.1 139.8,111.2 145.7,111.6 139.4,114.3 138.7,119.3 135.4,116 129.1,118.7 133.4,113.9 
					130.1,110.5 136.1,110.9 				"/>
			</g>
			<g>
				<polygon class="st2" points="114.7,127.9 114.9,132.7 120.6,131.7 114.9,135.7 115.1,140.5 111.5,138.2 105.8,142.2 
					109.2,136.7 105.6,134.4 111.3,133.4 				"/>
			</g>
			<g>
				<polygon class="st2" points="92.8,152.9 95.1,155.8 99.7,152.9 96.5,157.5 98.7,160.4 94.4,160.4 91.2,165.1 91.8,160.4 
					87.5,160.4 92.2,157.5 				"/>
			</g>
			<g>
				<polygon class="st2" points="79.7,178.5 82.9,180 85.9,176.4 84.9,181 88.1,182.5 84.3,183.8 83.4,188.4 82,184.6 78.2,186 
					81.1,182.3 				"/>
			</g>
			<g>
				<polygon class="st2" points="303.9,78.1 293.5,80 294,90.3 287,81.1 276.6,83 282.7,75.5 275.7,66.3 286.5,70.8 292.5,63.3 
					293.1,73.6 				"/>
			</g>
		</g>
	</g>
	<g>
		<path class="st3" d="M446.7,56.9h-17.3c-5.1,0-8.1-1.7-8.1-6.8V18.8c0-5.1,3-6.8,8.1-6.8h17.3c0.7,0,1.3,0.4,1.3,1v0.5
			c0,0.6-0.5,1-1.3,1h-17.3c-3.2,0-5.2,0.5-5.2,4.3v13.3h22.5c0.7,0,1.3,0.4,1.3,1v0.6c0,0.6-0.5,1-1.3,1h-22.5v15.5
			c0,3.7,1.9,4.3,5.2,4.3h17.3c0.7,0,1.3,0.4,1.3,1v0.5C448,56.5,447.4,56.9,446.7,56.9z"/>
		<path class="st3" d="M480.7,56.9h-0.5c-0.7,0-1.2-0.5-1.2-1.2v-1c-3.5,1.5-7.3,2.5-10.8,2.5c-6.5,0-11.8-3.2-11.8-11.5V25.6
			c0-0.6,0.5-1.1,1.3-1.1h0.5c0.7,0,1.2,0.5,1.2,1.1v20.1c0,6.8,4,9.2,8.9,9.2c0.1,0,0.1,0,0.1,0c3.4,0,7.3-1.1,10.6-2.5V25.6
			c0-0.6,0.6-1.1,1.3-1.1h0.4c0.7,0,1.3,0.5,1.3,1.1v30.1C482,56.4,481.5,56.9,480.7,56.9z"/>
		<path class="st3" d="M503.7,26.5c-2.6,0-5.4,0.5-9.3,2.8v26.5c0,0.6-0.6,1.1-1.3,1.1h-0.4c-0.7,0-1.3-0.5-1.3-1.1V25.7
			c0-0.7,0.5-1.2,1.2-1.2h0.5c0.7,0,1.2,0.5,1.2,1.2v1.3c3.4-2,6-2.8,9.3-2.8c1.1,0,1.8,0.2,1.8,0.9v0.5
			C505.5,26.3,504.7,26.5,503.7,26.5z"/>
		<path class="st3" d="M523.3,57.3c-9.2,0-13.8-5.3-13.8-14.5v-4.2c0-9.1,4.6-14.5,13.8-14.5s13.8,5.3,13.8,14.5v4.2
			C537.1,52,532.5,57.3,523.3,57.3z M534.1,38.6c0-7.4-3-12.1-10.9-12.1c-7.9,0-10.9,4.7-10.9,12.1v4.2c0,7.4,3,12.1,10.9,12.1
			c7.9,0,10.9-4.7,10.9-12.1V38.6z"/>
		<path class="st3" d="M557.8,57.3c-2.6,0-6.7-0.4-9.3-0.9v11.2c0,0.6-0.5,1.1-1.1,1.1h-0.7c-0.7,0-1.1-0.5-1.1-1.1V26.5
			c0-0.7,0.2-1,1-1.1c3-0.5,7.5-1.1,11.3-1.1c9.3,0,13.2,6,13.2,14.7v4C571,52.4,566.5,57.3,557.8,57.3z M568,38.8
			c0-7.8-2.7-12.3-10.2-12.3c-3.2,0-6.9,0.4-9.3,0.8v26.8c2.6,0.5,6.7,0.8,9.3,0.8c7.4,0,10.2-4.1,10.2-12.1V38.8z"/>
		<path class="st3" d="M604,41.3h-22.7v1.3c0,10.2,5.4,12.3,12.2,12.3c3,0,6.7-0.4,9.9-1c0.1,0,0.3-0.1,0.4-0.1c0.5,0,1,0.2,1,0.8
			v0.4c0,0.7-0.3,1-1.3,1.1c-3.2,0.6-7.1,1-10.1,1c-8.3,0-15.1-3.3-15.1-14.7v-4c0-8.3,4.7-14.5,13.6-14.5c9.3,0,13.4,5.8,13.4,14.4
			v1.6C605.3,40.8,604.7,41.3,604,41.3z M602.3,38.5c0-7.6-2.8-12-10.4-12c-7.5,0-10.6,4.9-10.6,12.1v0.3h21V38.5z"/>
		<path class="st3" d="M635.7,56.9h-0.3c-0.7,0-1.3-0.5-1.3-1.2v-1.5c-3.3,1.6-7.3,3.1-11.4,3.1c-5,0-10.3-2.2-10.3-9.7v-0.8
			c0-6.2,4.4-9.3,16.6-9.3h5.2v-2.2c0-6.3-1.9-8.8-8.5-8.8c-4.4,0-6.4,0.2-9.5,0.5c-0.1,0-0.1,0-0.3,0c-0.6,0-1.3-0.2-1.3-0.9v-0.4
			c0-0.7,0.5-1,1.5-1.1c2.8-0.3,5.1-0.5,9.5-0.5c9.1,0,11.4,4.6,11.4,11.1v20.4C637.1,56.4,636.5,56.9,635.7,56.9z M634.1,39.8h-5.2
			c-10.1,0-13.6,1.8-13.6,7v0.8c0,5.6,3.3,7.4,7.3,7.4c3.8,0,7-0.9,11.5-3.1V39.8z"/>
		<path class="st3" d="M670.8,56.9h-0.5c-0.7,0-1.2-0.5-1.2-1.1V35.7c0-6.9-4-9.2-9.1-9.2c-3.4,0-7.3,1-10.6,2.5v26.8
			c0,0.6-0.6,1.1-1.3,1.1h-0.4c-0.7,0-1.3-0.5-1.3-1.1V25.7c0-0.7,0.5-1.2,1.2-1.2h0.5c0.7,0,1.2,0.5,1.2,1.2v1
			c3.5-1.5,7.3-2.5,10.8-2.5c6.5,0,11.8,3.1,11.8,11.5v20.1C672.1,56.4,671.5,56.9,670.8,56.9z"/>
		<path class="st3" d="M450.8,120.3c-3.4,0.6-7.7,1-14.6,1c-7.3,0-18-4.3-18-18.6V94c0-14.3,10.2-18.6,18.2-18.6
			c6.4,0,12.2,0.7,14.4,1.1c0.9,0.2,1.3,0.5,1.3,1.3v4.1c0,0.8-0.3,1.3-1.3,1.3c-0.1,0-0.1,0-0.2,0c-3.1-0.2-7.7-0.5-14.2-0.5
			c-4.5,0-8.8,2.8-8.8,11.4v8.7c0,8.6,4.6,11.4,8.6,11.4c2.5,0,4.6-0.1,6.7-0.2V98.5c0-0.7,0.5-1.2,1.3-1.2h6.7
			c0.7,0,1.3,0.5,1.3,1.2v20.3C452.1,119.6,451.7,120.1,450.8,120.3z"/>
		<path class="st3" d="M464.4,120.8h-0.7c-0.7,0-1.1-0.5-1.1-1.1V77c0-0.6,0.5-1.1,1.1-1.1h0.7c0.7,0,1.1,0.5,1.1,1.1v42.6
			C465.5,120.3,465,120.8,464.4,120.8z"/>
		<path class="st3" d="M488.4,121.2c-9.2,0-13.8-5.3-13.8-14.5v-4.2c0-9.1,4.6-14.5,13.8-14.5c9.2,0,13.8,5.3,13.8,14.5v4.2
			C502.2,115.9,497.6,121.2,488.4,121.2z M499.3,102.5c0-7.4-3-12.1-10.9-12.1c-7.9,0-10.9,4.7-10.9,12.1v4.2
			c0,7.4,3,12.1,10.9,12.1c7.9,0,10.9-4.7,10.9-12.1V102.5z"/>
		<path class="st3" d="M522.9,121.2c-3.8,0-8.3-0.6-11.3-1.1c-0.8-0.2-1-0.4-1-1.1V77c0-0.6,0.5-1.1,1.1-1.1h0.7
			c0.7,0,1.1,0.5,1.1,1.1v11.9c2.7-0.5,6.7-0.9,9.3-0.9c8.7,0,13.2,4.9,13.2,14.5v4C536.1,115.2,532.2,121.2,522.9,121.2z
			 M533.1,102.5c0-8-2.8-12.1-10.2-12.1c-2.6,0-6.8,0.3-9.3,0.8V118c2.4,0.4,6.1,0.8,9.3,0.8c7.5,0,10.2-4.5,10.2-12.3V102.5z"/>
		<path class="st3" d="M566.5,120.8h-0.3c-0.7,0-1.3-0.5-1.3-1.2v-1.5c-3.3,1.6-7.3,3.1-11.4,3.1c-5,0-10.3-2.2-10.3-9.7v-0.8
			c0-6.2,4.4-9.3,16.6-9.3h5.2v-2.2c0-6.3-1.9-8.8-8.5-8.8c-4.4,0-6.4,0.2-9.5,0.5c-0.1,0-0.1,0-0.3,0c-0.6,0-1.3-0.2-1.3-0.9v-0.4
			c0-0.7,0.5-1,1.5-1.1c2.8-0.3,5.1-0.5,9.5-0.5c9.1,0,11.4,4.6,11.4,11.1v20.4C567.9,120.3,567.3,120.8,566.5,120.8z M564.9,103.7
			h-5.2c-10.1,0-13.6,1.8-13.6,7v0.8c0,5.6,3.3,7.4,7.3,7.4c3.8,0,7-0.9,11.5-3.1V103.7z"/>
		<path class="st3" d="M579.8,120.8h-0.7c-0.7,0-1.1-0.5-1.1-1.1V77c0-0.6,0.5-1.1,1.1-1.1h0.7c0.7,0,1.1,0.5,1.1,1.1v42.6
			C580.9,120.3,580.4,120.8,579.8,120.8z"/>
		<path class="st3" d="M636.1,121.2L636.1,121.2c-1.1,0-1.7,0-2.3-0.4c-0.4-0.3-0.9-0.8-1.2-1.4l-22.6-40.8
			c-0.1-0.2-0.3-0.4-0.5-0.4c-0.1,0-0.3,0.1-0.3,0.4v41.1c0,0.6-0.5,1.1-1.1,1.1h-0.7c-0.7,0-1.1-0.5-1.1-1.1V78.5
			c0-1.8,1.3-3,3.3-3c1.9,0,2.6,0.7,3.2,1.9l22.6,40.8c0.1,0.2,0.3,0.4,0.5,0.4c0.3,0,0.3-0.3,0.3-0.5V77c0-0.6,0.4-1.1,1.1-1.1h0.8
			c0.7,0,1.1,0.5,1.1,1.1v41.1C639.1,120,637.8,121.2,636.1,121.2z"/>
		<path class="st3" d="M671.2,120.8h-0.3c-0.7,0-1.3-0.5-1.3-1.2v-1.5c-3.3,1.6-7.3,3.1-11.4,3.1c-5,0-10.3-2.2-10.3-9.7v-0.8
			c0-6.2,4.4-9.3,16.6-9.3h5.2v-2.2c0-6.3-1.9-8.8-8.5-8.8c-4.4,0-6.4,0.2-9.5,0.5c-0.1,0-0.1,0-0.3,0c-0.6,0-1.3-0.2-1.3-0.9v-0.4
			c0-0.7,0.5-1,1.5-1.1c2.8-0.3,5.1-0.5,9.5-0.5c9.1,0,11.4,4.6,11.4,11.1v20.4C672.6,120.3,672,120.8,671.2,120.8z M669.6,103.7
			h-5.2c-10.1,0-13.6,1.8-13.6,7v0.8c0,5.6,3.3,7.4,7.3,7.4c3.8,0,7-0.9,11.5-3.1V103.7z"/>
		<path class="st3" d="M705.8,89.8l-8.8,27.5c-1,3.2-2.6,3.8-4.6,3.8c-1.9,0-3.7-0.6-4.7-3.8l-8.8-27.5c-0.1-0.2-0.1-0.4-0.1-0.5
			c0-0.6,0.4-1,1.1-1h0.7c0.5,0,0.9,0.2,1.2,1.1l8.6,27.3c0.6,1.8,1.3,2.2,2,2.2c0.7,0,1.3-0.4,1.9-2.2l8.6-27.3
			c0.3-0.8,0.7-1.1,1.2-1.1h0.8c0.7,0,0.9,0.4,0.9,0.9C705.9,89.4,705.9,89.7,705.8,89.8z"/>
		<path class="st3" d="M715.5,82.4h-0.4c-0.7,0-1.3-0.5-1.3-1.1v-4.5c0-0.6,0.6-1.1,1.3-1.1h0.4c0.7,0,1.3,0.5,1.3,1.1v4.5
			C716.8,81.9,716.2,82.4,715.5,82.4z M715.5,120.8h-0.4c-0.7,0-1.3-0.5-1.3-1.1V89.5c0-0.6,0.6-1.1,1.3-1.1h0.4
			c0.7,0,1.3,0.5,1.3,1.1v30.2C716.8,120.3,716.2,120.8,715.5,120.8z"/>
		<path class="st3" d="M753.8,90.9h-3.5c1.3,1,3.7,3.1,3.7,7.5v0.5c0,5.7-3.4,9.9-13.9,9.9c-3.5,0-5.7-0.5-8.2-1.4
			c-1.4,0.5-2.3,1.4-2.3,2.6c0,0.8,0.4,1.5,1.9,1.9l12.1,2.8c7.2,1.7,10.8,3.3,10.8,8.2v0.5c0,5.4-3.6,9.4-14.2,9.4
			c-10.3,0-14.2-3.9-14.2-9.4v-0.5c0-4.2,2.8-7.5,5-8.7l-0.5-0.1c-2.5-0.7-3.6-2.2-3.6-4.1c0-1.5,0.9-3.1,2.8-3.9
			c-2.2-1.6-3.5-4-3.5-7.2v-0.5c0-4.7,2.4-10.1,13.8-10.1h13.7c0.7,0,1.3,0.4,1.3,1V90C755.1,90.6,754.4,90.9,753.8,90.9z
			 M751.4,122.9c0-3.4-1.4-4.2-8.5-5.9l-9.3-2.2c-3,1.8-4.9,4-4.9,8v0.5c0,4.4,2.8,7.1,11.4,7.1c8.9,0,11.3-2.7,11.3-7.1V122.9z
			 M751.1,98.4c0-4.4-2.3-7.8-11-7.8c-9.3,0-10.9,3.9-10.9,7.8v0.5c0,3,1.7,7.6,10.9,7.6c8.9,0,11-3.4,11-7.6V98.4z"/>
		<path class="st3" d="M784.8,120.8h-0.3c-0.7,0-1.3-0.5-1.3-1.2v-1.5c-3.3,1.6-7.3,3.1-11.4,3.1c-5,0-10.3-2.2-10.3-9.7v-0.8
			c0-6.2,4.4-9.3,16.6-9.3h5.2v-2.2c0-6.3-1.9-8.8-8.5-8.8c-4.4,0-6.4,0.2-9.5,0.5c-0.1,0-0.1,0-0.3,0c-0.6,0-1.3-0.2-1.3-0.9v-0.4
			c0-0.7,0.5-1,1.5-1.1c2.8-0.3,5.1-0.5,9.5-0.5c9.1,0,11.4,4.6,11.4,11.1v20.4C786.2,120.3,785.6,120.8,784.8,120.8z M783.2,103.7
			H778c-10.1,0-13.6,1.8-13.6,7v0.8c0,5.6,3.3,7.4,7.3,7.4c3.8,0,7-0.9,11.5-3.1V103.7z"/>
		<path class="st3" d="M811.2,121c-1,0.1-2.4,0.2-3.5,0.2c-4.8,0-7.6-1.3-7.6-6.5V90.8h-6.7c-0.7,0-1.3-0.4-1.3-1v-0.6
			c0-0.6,0.5-0.9,1.3-0.9h6.7v-6.2c0-0.6,0.4-1.1,1.1-1.1h0.7c0.7,0,1.1,0.5,1.1,1.1v6.2h8c0.7,0,1.3,0.3,1.3,0.9v0.6
			c0,0.6-0.5,1-1.3,1h-8v23.8c0,3.6,1.7,4.2,4.6,4.2h3.2c1,0,1.4,0.3,1.4,0.8v0.4C812.4,120.5,812.2,120.9,811.2,121z"/>
		<path class="st3" d="M822.1,82.4h-0.4c-0.7,0-1.3-0.5-1.3-1.1v-4.5c0-0.6,0.6-1.1,1.3-1.1h0.4c0.7,0,1.3,0.5,1.3,1.1v4.5
			C823.4,81.9,822.8,82.4,822.1,82.4z M822.1,120.8h-0.4c-0.7,0-1.3-0.5-1.3-1.1V89.5c0-0.6,0.6-1.1,1.3-1.1h0.4
			c0.7,0,1.3,0.5,1.3,1.1v30.2C823.4,120.3,822.8,120.8,822.1,120.8z"/>
		<path class="st3" d="M846.3,121.2c-9.2,0-13.8-5.3-13.8-14.5v-4.2c0-9.1,4.6-14.5,13.8-14.5s13.8,5.3,13.8,14.5v4.2
			C860.1,115.9,855.5,121.2,846.3,121.2z M857.2,102.5c0-7.4-3-12.1-10.9-12.1c-7.9,0-10.9,4.7-10.9,12.1v4.2
			c0,7.4,3,12.1,10.9,12.1c7.9,0,10.9-4.7,10.9-12.1V102.5z"/>
		<path class="st3" d="M892.8,120.8h-0.5c-0.7,0-1.2-0.5-1.2-1.1V99.6c0-6.9-4-9.2-9.1-9.2c-3.4,0-7.3,1-10.6,2.5v26.8
			c0,0.6-0.6,1.1-1.3,1.1h-0.4c-0.7,0-1.3-0.5-1.3-1.1V89.5c0-0.7,0.5-1.2,1.2-1.2h0.5c0.7,0,1.2,0.5,1.2,1.2v1
			c3.5-1.5,7.3-2.5,10.8-2.5c6.5,0,11.8,3.1,11.8,11.5v20.1C894.1,120.3,893.6,120.8,892.8,120.8z"/>
		<path class="st3" d="M434.8,185.2c-5,0-8.7-0.4-11.9-1.1c-0.7-0.1-1.3-0.5-1.3-1.2v-4.4c0-0.7,0.6-1.1,1.3-1.1c0.1,0,0.1,0,0.1,0
			c2.7,0.3,9.4,0.6,11.9,0.6c6,0,7.8-1.9,7.8-5.4c0-2.4-1.3-3.6-5.7-5.9l-8.9-4.8c-6.2-3.3-7.9-6.8-7.9-11.1
			c0-6.7,4.3-11.5,16.8-11.5c4.4,0,10.6,0.6,12.9,1.1c0.7,0.1,1.2,0.5,1.2,1.1v4.5c0,0.6-0.5,1.1-1.1,1.1c-0.1,0-0.1,0-0.1,0
			c-4.4-0.4-8.9-0.6-13.2-0.6c-5,0-7.1,1.6-7.1,4.3c0,2,1.1,3.2,5.5,5.4l8.1,4.1c7.4,3.7,9.3,7.6,9.3,12.3
			C452.5,178.6,448.2,185.2,434.8,185.2z"/>
		<path class="st3" d="M482.2,184.7h-0.3c-0.7,0-1.3-0.5-1.3-1.2V182c-3.3,1.6-7.3,3.1-11.4,3.1c-5,0-10.3-2.2-10.3-9.7v-0.8
			c0-6.2,4.4-9.3,16.6-9.3h5.2V163c0-6.3-1.9-8.8-8.5-8.8c-4.4,0-6.4,0.2-9.5,0.5c-0.1,0-0.1,0-0.3,0c-0.6,0-1.3-0.2-1.3-0.9v-0.4
			c0-0.7,0.5-1,1.5-1.1c2.8-0.3,5.1-0.5,9.5-0.5c9.1,0,11.4,4.6,11.4,11.1v20.4C483.6,184.1,483,184.7,482.2,184.7z M480.6,167.6
			h-5.2c-10.1,0-13.6,1.8-13.6,7v0.8c0,5.6,3.3,7.4,7.3,7.4c3.8,0,7-0.9,11.5-3.1V167.6z"/>
		<path class="st3" d="M508.6,184.9c-1,0.1-2.4,0.2-3.5,0.2c-4.8,0-7.6-1.3-7.6-6.5v-23.8h-6.7c-0.7,0-1.3-0.4-1.3-1v-0.6
			c0-0.6,0.5-0.9,1.3-0.9h6.7V146c0-0.6,0.4-1.1,1.1-1.1h0.7c0.7,0,1.1,0.5,1.1,1.1v6.2h8c0.7,0,1.3,0.3,1.3,0.9v0.6
			c0,0.6-0.5,1-1.3,1h-8v23.8c0,3.6,1.7,4.2,4.6,4.2h3.2c1,0,1.4,0.3,1.4,0.8v0.4C509.8,184.4,509.6,184.8,508.6,184.9z"/>
		<path class="st3" d="M540.1,169.1h-22.7v1.3c0,10.2,5.4,12.3,12.2,12.3c3,0,6.7-0.4,9.9-1c0.1,0,0.3-0.1,0.4-0.1
			c0.5,0,1,0.2,1,0.8v0.4c0,0.7-0.3,1-1.3,1.1c-3.2,0.6-7.1,1-10.1,1c-8.3,0-15.1-3.3-15.1-14.7v-4c0-8.3,4.7-14.5,13.6-14.5
			c9.3,0,13.4,5.8,13.4,14.4v1.6C541.4,168.6,540.8,169.1,540.1,169.1z M538.4,166.3c0-7.6-2.8-12-10.4-12
			c-7.5,0-10.6,4.9-10.6,12.1v0.3h21V166.3z"/>
		<path class="st3" d="M552.3,184.7h-0.7c-0.7,0-1.1-0.5-1.1-1.1v-42.6c0-0.6,0.5-1.1,1.1-1.1h0.7c0.7,0,1.1,0.5,1.1,1.1v42.6
			C553.4,184.1,553,184.7,552.3,184.7z"/>
		<path class="st3" d="M566,184.7h-0.7c-0.7,0-1.1-0.5-1.1-1.1v-42.6c0-0.6,0.5-1.1,1.1-1.1h0.7c0.7,0,1.1,0.5,1.1,1.1v42.6
			C567.1,184.1,566.7,184.7,566,184.7z"/>
		<path class="st3" d="M579.6,146.2h-0.4c-0.7,0-1.3-0.5-1.3-1.1v-4.5c0-0.6,0.6-1.1,1.3-1.1h0.4c0.7,0,1.3,0.5,1.3,1.1v4.5
			C580.8,145.7,580.2,146.2,579.6,146.2z M579.6,184.7h-0.4c-0.7,0-1.3-0.5-1.3-1.1v-30.2c0-0.6,0.6-1.1,1.3-1.1h0.4
			c0.7,0,1.3,0.5,1.3,1.1v30.2C580.8,184.1,580.2,184.7,579.6,184.7z"/>
		<path class="st3" d="M607.9,184.9c-1,0.1-2.4,0.2-3.5,0.2c-4.8,0-7.6-1.3-7.6-6.5v-23.8h-6.7c-0.7,0-1.3-0.4-1.3-1v-0.6
			c0-0.6,0.5-0.9,1.3-0.9h6.7V146c0-0.6,0.4-1.1,1.1-1.1h0.7c0.7,0,1.1,0.5,1.1,1.1v6.2h8c0.7,0,1.3,0.3,1.3,0.9v0.6
			c0,0.6-0.5,1-1.3,1h-8v23.8c0,3.6,1.7,4.2,4.6,4.2h3.2c1,0,1.4,0.3,1.4,0.8v0.4C609.1,184.4,608.9,184.8,607.9,184.9z"/>
		<path class="st3" d="M639.4,169.1h-22.7v1.3c0,10.2,5.4,12.3,12.2,12.3c3,0,6.7-0.4,9.9-1c0.1,0,0.3-0.1,0.4-0.1
			c0.5,0,1,0.2,1,0.8v0.4c0,0.7-0.3,1-1.3,1.1c-3.2,0.6-7.1,1-10.1,1c-8.3,0-15.1-3.3-15.1-14.7v-4c0-8.3,4.7-14.5,13.6-14.5
			c9.3,0,13.4,5.8,13.4,14.4v1.6C640.7,168.6,640.1,169.1,639.4,169.1z M637.7,166.3c0-7.6-2.8-12-10.4-12
			c-7.5,0-10.6,4.9-10.6,12.1v0.3h21V166.3z"/>
		<path class="st3" d="M675.2,185.1c-4.4,0-7.7-0.4-10.4-0.7c-0.6-0.1-1.2-0.4-1.2-1v-0.8c0-0.6,0.6-0.8,1.3-0.8c0.1,0,0.2,0,0.3,0
			c3.5,0.2,6.4,0.7,10.1,0.7c10.1,0,12.5-4.1,12.5-9c0-4.5-2.9-6-10.3-10.2l-4.2-2.4c-6.1-3.4-10.5-6.3-10.5-11.7
			c0-7.9,7.9-9.8,15.7-9.8c3.6,0,7.1,0.4,10,0.6c0.7,0.1,1.1,0.4,1.1,0.9v0.8c0,0.6-0.5,0.8-1.3,0.8c-1.5,0-6.5-0.6-9.9-0.6
			c-8.9,0-12.6,2.3-12.6,7.3c0,3.7,3.1,6,9.1,9.3l4.3,2.4c7.5,4.1,11.8,7,11.8,12.6C690.7,179,688.1,185.1,675.2,185.1z"/>
		<path class="st3" d="M723.1,153.7l-11,34.3c-2.1,6.5-4.6,8.4-10.9,8.4c-1.5,0-3-0.2-4.2-0.4c-0.8-0.1-1.3-0.3-1.3-0.8v-0.7
			c0-0.6,0.4-0.8,1-0.8c0.1,0,0.3,0,0.4,0c1,0.1,3.3,0.4,4.4,0.4c4.8,0,6.4-1.3,8-6.6l0.9-2.8h-0.9c-2.1,0-3.2-0.5-4.1-3.4
			l-9.1-27.6c-0.1-0.1-0.1-0.3-0.1-0.4c0-0.6,0.4-1,1.1-1h0.6c0.5,0,0.9,0.4,1.1,0.8l9.1,27.8c0.4,1.3,1,1.3,1.5,1.3h1.5l9.2-29.2
			c0.1-0.4,0.7-0.8,1.2-0.8h0.6c0.7,0,1,0.4,1,1C723.1,153.4,723.1,153.5,723.1,153.7z"/>
		<path class="st3" d="M740.3,185.1c-3,0-7.3-0.4-9.7-0.8c-0.9-0.2-1.5-0.4-1.5-1v-0.7c0-0.6,0.5-0.8,1.1-0.8c0.1,0,0.3,0,0.4,0
			c3.2,0.5,7.1,1,9.9,1c4.8,0,8.5-1.1,8.5-6c0-2.5-1.5-3.8-7.1-6.6l-4.3-2.1c-5-2.5-8.1-4.5-8.1-8.6c0-5.6,5-7.4,10.3-7.4
			c4.8,0,7.3,0.3,9.6,0.5c0.9,0.1,1.4,0.5,1.4,1v0.5c0,0.7-0.5,1-1.2,1c-0.1,0-0.1,0-0.2,0c-1.7-0.2-5.6-0.7-9.3-0.7
			c-4.3,0-7.6,0.8-7.6,5.1c0,2.7,2.4,4.2,6.5,6.3l4.5,2.2c5.6,2.8,8.5,4.8,8.5,8.8C751.9,183.1,746.6,185.1,740.3,185.1z"/>
		<path class="st3" d="M775.9,184.9c-1,0.1-2.4,0.2-3.5,0.2c-4.8,0-7.6-1.3-7.6-6.5v-23.8h-6.7c-0.7,0-1.3-0.4-1.3-1v-0.6
			c0-0.6,0.5-0.9,1.3-0.9h6.7V146c0-0.6,0.4-1.1,1.1-1.1h0.7c0.7,0,1.1,0.5,1.1,1.1v6.2h8c0.7,0,1.3,0.3,1.3,0.9v0.6
			c0,0.6-0.5,1-1.3,1h-8v23.8c0,3.6,1.7,4.2,4.6,4.2h3.2c1,0,1.4,0.3,1.4,0.8v0.4C777.1,184.4,776.9,184.8,775.9,184.9z"/>
		<path class="st3" d="M807.4,169.1h-22.7v1.3c0,10.2,5.4,12.3,12.2,12.3c3,0,6.7-0.4,9.9-1c0.1,0,0.3-0.1,0.4-0.1
			c0.5,0,1,0.2,1,0.8v0.4c0,0.7-0.3,1-1.3,1.1c-3.2,0.6-7.1,1-10.1,1c-8.3,0-15.1-3.3-15.1-14.7v-4c0-8.3,4.7-14.5,13.6-14.5
			c9.3,0,13.4,5.8,13.4,14.4v1.6C808.7,168.6,808.1,169.1,807.4,169.1z M805.7,166.3c0-7.6-2.8-12-10.4-12
			c-7.5,0-10.6,4.9-10.6,12.1v0.3h21V166.3z"/>
		<path class="st3" d="M856.7,184.7H856c-0.7,0-1.1-0.5-1.1-1.1v-21.6c0-5.7-3-7.6-7.9-7.6c-3,0-6.3,0.8-9.1,2.1
			c0.6,1.4,1,3.1,1,5.3v21.9c0,0.6-0.3,1.1-1,1.1h-1c-0.7,0-0.9-0.5-0.9-1.1v-21.9c0-5.6-2.8-7.4-6.3-7.4c-3,0-6.5,1.2-9.6,2.5v26.7
			c0,0.6-0.3,1.1-1,1.1h-0.9c-0.7,0-1-0.5-1-1.1v-30.1c0-0.7,0.5-1.2,1.2-1.2h0.5c0.7,0,1.2,0.5,1.2,1.2v1.1
			c2.8-1.2,6.7-2.6,10.2-2.6c2.4,0,4.7,0.7,6.4,2.5c3.4-1.5,7.3-2.5,10.8-2.5c5.6,0,10.3,2.8,10.3,10v21.6
			C857.8,184.1,857.4,184.7,856.7,184.7z"/>
		<path class="st3" d="M877.1,185.1c-3,0-7.3-0.4-9.7-0.8c-0.9-0.2-1.5-0.4-1.5-1v-0.7c0-0.6,0.5-0.8,1.1-0.8c0.1,0,0.3,0,0.4,0
			c3.2,0.5,7.1,1,9.9,1c4.8,0,8.5-1.1,8.5-6c0-2.5-1.5-3.8-7.1-6.6l-4.3-2.1c-5-2.5-8.1-4.5-8.1-8.6c0-5.6,5-7.4,10.3-7.4
			c4.8,0,7.3,0.3,9.6,0.5c0.9,0.1,1.4,0.5,1.4,1v0.5c0,0.7-0.5,1-1.2,1c-0.1,0-0.1,0-0.2,0c-1.7-0.2-5.6-0.7-9.3-0.7
			c-4.3,0-7.6,0.8-7.6,5.1c0,2.7,2.4,4.2,6.5,6.3l4.5,2.2c5.6,2.8,8.5,4.8,8.5,8.8C888.7,183.1,883.3,185.1,877.1,185.1z"/>
		<path class="st3" d="M456.8,248.6h-7.1c-0.6,0-1.1-0.5-1.3-1l-3.1-11.5h-15.5l-3.1,11.5c-0.1,0.5-0.7,1-1.3,1h-7.1
			c-0.7,0-1.2-0.4-1.2-1c0-0.1,0.1-0.2,0.1-0.3l11-37.9c1.6-5.6,6.4-6.2,9.3-6.2c2.9,0,7.7,0.5,9.3,6.2l11,37.9
			c0,0.1,0.1,0.2,0.1,0.3C458,248.2,457.4,248.6,456.8,248.6z M438.6,211.2c-0.2-0.7-0.4-1-1.1-1c-0.7,0-0.9,0.2-1.1,1l-4.8,18h11.8
			L438.6,211.2z"/>
		<path class="st3" d="M490.8,218.7h-3.5c1.3,1,3.7,3.1,3.7,7.5v0.5c0,5.7-3.4,9.9-13.9,9.9c-3.5,0-5.7-0.5-8.2-1.4
			c-1.4,0.5-2.3,1.4-2.3,2.6c0,0.8,0.4,1.5,1.9,1.9l12.1,2.8c7.2,1.7,10.8,3.3,10.8,8.2v0.5c0,5.4-3.6,9.4-14.2,9.4
			c-10.3,0-14.2-3.9-14.2-9.4v-0.5c0-4.2,2.8-7.5,5-8.7l-0.5-0.1c-2.5-0.7-3.6-2.2-3.6-4.1c0-1.5,0.9-3.1,2.8-3.9
			c-2.2-1.6-3.5-4-3.5-7.2v-0.5c0-4.7,2.4-10.1,13.8-10.1h13.7c0.7,0,1.3,0.4,1.3,1v0.7C492.1,218.4,491.5,218.7,490.8,218.7z
			 M488.5,250.6c0-3.4-1.4-4.2-8.5-5.9l-9.3-2.2c-3,1.8-4.9,4-4.9,8v0.5c0,4.4,2.8,7.1,11.4,7.1c8.9,0,11.3-2.7,11.3-7.1V250.6z
			 M488.1,226.2c0-4.4-2.3-7.8-11-7.8c-9.3,0-10.9,3.9-10.9,7.8v0.5c0,3,1.7,7.6,10.9,7.6c8.9,0,11-3.4,11-7.6V226.2z"/>
		<path class="st3" d="M524.5,233h-22.7v1.3c0,10.2,5.4,12.3,12.2,12.3c3,0,6.7-0.4,9.9-1c0.1,0,0.3-0.1,0.4-0.1c0.5,0,1,0.2,1,0.8
			v0.4c0,0.7-0.3,1-1.3,1.1c-3.2,0.6-7.1,1-10.1,1c-8.3,0-15.1-3.3-15.1-14.7v-4c0-8.3,4.7-14.5,13.6-14.5c9.3,0,13.4,5.8,13.4,14.4
			v1.6C525.8,232.5,525.2,233,524.5,233z M522.8,230.2c0-7.6-2.8-12-10.4-12c-7.5,0-10.6,4.9-10.6,12.1v0.3h21V230.2z"/>
		<path class="st3" d="M558.5,248.6H558c-0.7,0-1.2-0.5-1.2-1.2v-20.1c0-6.9-4-9.2-9.1-9.2c-3.4,0-7.3,1-10.6,2.5v26.8
			c0,0.6-0.6,1.2-1.3,1.2h-0.4c-0.7,0-1.3-0.5-1.3-1.2v-30.1c0-0.7,0.5-1.2,1.2-1.2h0.5c0.7,0,1.2,0.5,1.2,1.2v1
			c3.5-1.5,7.3-2.5,10.8-2.5c6.5,0,11.8,3.1,11.8,11.5v20.1C559.8,248,559.2,248.6,558.5,248.6z"/>
		<path class="st3" d="M589.6,248.4c-2.8,0.3-6,0.5-8.1,0.5c-9.6,0-13.3-6.7-13.3-14.6v-4.1c0-8,3.7-14.5,13.3-14.5
			c2.1,0,5.3,0.2,8.1,0.5c1,0.1,1.3,0.4,1.3,1.1v0.4c0,0.6-0.5,0.8-1.1,0.8c-0.1,0-0.2,0-0.3,0c-3.2-0.4-5.8-0.5-8-0.5
			c-7.7,0-10.3,4.8-10.3,12.1v4.1c0,7.3,2.7,12.3,10.3,12.3c2.2,0,4.8-0.2,8-0.5c0.1,0,0.2,0,0.3,0c0.6,0,1.1,0.2,1.1,0.8v0.4
			C590.9,248,590.6,248.3,589.6,248.4z"/>
		<path class="st3" d="M623.8,217.6l-11,34.3c-2.1,6.5-4.6,8.4-10.9,8.4c-1.5,0-3-0.2-4.2-0.4c-0.8-0.1-1.3-0.3-1.3-0.8v-0.7
			c0-0.6,0.4-0.8,1-0.8c0.1,0,0.3,0,0.4,0c1,0.1,3.3,0.4,4.4,0.4c4.8,0,6.4-1.3,8-6.6l0.9-2.8h-0.9c-2.1,0-3.2-0.5-4.1-3.4
			l-9.1-27.6c-0.1-0.1-0.1-0.3-0.1-0.4c0-0.6,0.4-1,1.1-1h0.6c0.5,0,0.9,0.4,1.1,0.8l9.1,27.8c0.4,1.3,1,1.3,1.5,1.3h1.5l9.2-29.2
			c0.1-0.4,0.7-0.8,1.2-0.8h0.6c0.7,0,1,0.4,1,1C623.8,217.3,623.8,217.4,623.8,217.6z"/>
	</g>
</g>
</svg>
