<svg width="2268" height="2268" viewBox="0 0 2268 2268" fill="none" xmlns="http://www.w3.org/2000/svg">
<path d="M2267.72 0H0V2267.72H2267.72V0Z" fill="#456EB6"/>
<path d="M1165.4 849.701H1915.17C1915.17 849.701 1957.64 848.067 1957.64 884.005C1957.64 919.94 1959.68 1259.3 1954.78 1279.72C1951.66 1292.72 1944.57 1334.85 1867.8 1334.85C1791.03 1334.85 1145.8 1334.85 1145.8 1334.85C1145.8 1334.85 1144.71 1270.59 1136.54 1241.19C1168.67 1241.19 1168.67 1225.95 1168.67 1225.95C1168.67 1225.95 1175.2 1220.5 1158.87 1155.16C1142.53 1089.82 1082.09 998.348 1088.63 982.014C1095.16 965.679 1165.4 849.701 1165.4 849.701Z" fill="white"/>
<path d="M1983.23 1015.35C1983.23 1027.01 1972.02 1036.46 1958.19 1036.46C1944.35 1036.46 1933.14 1027.01 1933.14 1015.35V943.773C1933.14 932.113 1944.35 922.663 1958.19 922.663C1972.02 922.663 1983.23 932.113 1983.23 943.773V1015.35Z" fill="white"/>
<path d="M1143.54 694.881C1148.82 700.135 1148.83 708.667 1143.58 713.937L1008.67 849.309C1003.41 854.583 994.881 854.592 989.611 849.341C984.336 844.087 984.322 835.555 989.576 830.284L1124.49 694.914C1129.74 689.638 1138.27 689.629 1143.54 694.881Z" fill="white"/>
<path d="M1177.87 905.846L1066.88 790.496L1087.11 771.032L1198.1 886.381L1177.87 905.846Z" fill="white"/>
<path d="M1412.06 911.17C1412.06 930.451 1396.7 946.076 1377.75 946.076C1358.81 946.076 1343.45 930.451 1343.45 911.17V696.756C1343.45 677.477 1358.81 661.85 1377.75 661.85C1396.7 661.85 1412.06 677.477 1412.06 696.756V911.17Z" fill="white"/>
<path d="M1360.6 676.961V519.738C1360.6 519.738 1363.46 474 1395.31 474C1427.17 474 1434.93 474.408 1434.93 474.408V508.303H1409.2C1409.2 508.303 1393.68 505.853 1393.68 521.779C1393.68 537.705 1393.68 679.002 1393.68 679.002L1360.6 676.961Z" fill="white"/>
<path d="M2040.23 1586.4C2040.23 1701.49 1946.94 1794.77 1831.86 1794.77C1716.79 1794.77 1623.5 1701.49 1623.5 1586.4C1623.5 1471.32 1716.79 1378.04 1831.86 1378.04C1946.94 1378.04 2040.23 1471.31 2040.23 1586.4Z" fill="white"/>
<path d="M1097.58 1328.32C1097.58 1568.8 902.665 1763.48 662.29 1763.48C421.911 1763.48 227 1568.8 227 1328.32C227 1088.08 421.911 893.141 662.29 893.141C902.665 893.141 1097.58 1088.07 1097.58 1328.32Z" fill="white"/>
<path d="M619.608 931.688C621.375 945.562 611.564 958.242 597.691 960.005C583.819 961.769 571.144 951.957 569.378 938.084L551.424 797.116C549.658 783.242 559.469 770.563 573.342 768.798C587.213 767.034 599.891 776.845 601.656 790.72L619.608 931.688Z" fill="white"/>
<path d="M903.071 1328.31C903.071 1461.31 795.266 1569.08 662.29 1569.08C529.315 1569.08 421.508 1461.31 421.508 1328.31C421.508 1195.31 529.315 1087.54 662.29 1087.54C795.266 1087.54 903.071 1195.31 903.071 1328.31Z" fill="#456EB6"/>
<path d="M1934.77 1583.95C1934.77 1640.34 1889.06 1686.04 1832.68 1686.04C1776.3 1686.04 1730.59 1640.34 1730.59 1583.95C1730.59 1527.56 1776.3 1481.86 1832.68 1481.86C1889.06 1481.86 1934.77 1527.56 1934.77 1583.95Z" fill="#456EB6"/>
<path d="M1855.01 1584.76C1855.01 1597.54 1844.65 1607.9 1831.86 1607.9C1819.08 1607.9 1808.71 1597.54 1808.71 1584.76C1808.71 1571.97 1819.08 1561.6 1831.86 1561.6C1844.65 1561.6 1855.01 1571.97 1855.01 1584.76Z" fill="white"/>
<path d="M731.742 1328.31C731.742 1366.66 700.655 1397.76 662.29 1397.76C623.924 1397.76 592.838 1366.66 592.838 1328.31C592.838 1289.95 623.924 1258.84 662.29 1258.84C700.655 1258.84 731.742 1289.95 731.742 1328.31Z" fill="white"/>
<path d="M1899.38 1107.24C1899.38 1101.83 1903.77 1097.44 1909.18 1097.44H1991.94C1997.36 1097.44 2001.75 1101.83 2001.75 1107.24C2001.75 1112.66 1997.36 1117.05 1991.94 1117.05H1909.18C1903.77 1117.05 1899.38 1112.66 1899.38 1107.24Z" fill="#456EB6"/>
<path d="M1899.38 1144.27C1899.38 1138.86 1903.77 1134.47 1909.18 1134.47H1991.94C1997.35 1134.47 2001.74 1138.86 2001.74 1144.27C2001.74 1149.68 1997.35 1154.07 1991.94 1154.07H1909.18C1903.76 1154.07 1899.38 1149.68 1899.38 1144.27Z" fill="#456EB6"/>
<path d="M1899.38 1181.3C1899.38 1175.88 1903.77 1171.5 1909.18 1171.5H1991.94C1997.35 1171.5 2001.74 1175.88 2001.74 1181.3C2001.74 1186.71 1997.35 1191.1 1991.94 1191.1H1909.18C1903.76 1191.1 1899.38 1186.71 1899.38 1181.3Z" fill="#456EB6"/>
<path d="M1899.38 1215.06C1899.38 1209.64 1903.77 1205.25 1909.18 1205.25H1991.94C1997.35 1205.25 2001.74 1209.64 2001.74 1215.06C2001.74 1220.47 1997.35 1224.86 1991.94 1224.86H1909.18C1903.76 1224.86 1899.38 1220.47 1899.38 1215.06Z" fill="#456EB6"/>
</svg>
